<svg width="138" height="41" viewBox="0 0 138 41" fill="none" xmlns="http://www.w3.org/2000/svg">
<path d="M69.104 20.76V28.968C68.32 29.352 67.376 29.656 66.272 29.88C65.168 30.104 64.04 30.216 62.888 30.216C61.128 30.216 59.6 29.864 58.304 29.16C57.008 28.456 56.016 27.448 55.328 26.136C54.64 24.824 54.296 23.256 54.296 21.432C54.296 19.64 54.64 18.088 55.328 16.776C56.016 15.464 56.992 14.456 58.256 13.752C59.536 13.048 61.032 12.696 62.744 12.696C63.944 12.696 65.064 12.872 66.104 13.224C67.16 13.576 68.04 14.072 68.744 14.712L67.688 16.968C66.888 16.344 66.104 15.896 65.336 15.624C64.568 15.352 63.728 15.216 62.816 15.216C61.056 15.216 59.72 15.744 58.808 16.8C57.912 17.856 57.464 19.4 57.464 21.432C57.464 23.528 57.928 25.112 58.856 26.184C59.784 27.24 61.168 27.768 63.008 27.768C64.128 27.768 65.232 27.616 66.32 27.312V22.992H62.624V20.76H69.104ZM78.9022 17.592C79.3662 17.592 79.7662 17.656 80.1022 17.784L80.0782 20.52C79.5662 20.312 79.0382 20.208 78.4942 20.208C77.4702 20.208 76.6862 20.504 76.1422 21.096C75.6142 21.688 75.3502 22.472 75.3502 23.448V30H72.3742V21.312C72.3742 20.032 72.3102 18.888 72.1822 17.88H74.9902L75.2302 20.016C75.5342 19.232 76.0142 18.632 76.6702 18.216C77.3262 17.8 78.0702 17.592 78.9022 17.592ZM92.8126 17.88V30H89.8846V28.128C89.5006 28.8 88.9886 29.312 88.3486 29.664C87.7086 30.016 86.9726 30.192 86.1406 30.192C83.1806 30.192 81.7006 28.528 81.7006 25.2V17.88H84.6766V25.224C84.6766 26.104 84.8526 26.752 85.2046 27.168C85.5726 27.584 86.1326 27.792 86.8846 27.792C87.7646 27.792 88.4686 27.504 88.9966 26.928C89.5246 26.352 89.7886 25.584 89.7886 24.624V17.88H92.8126ZM102.982 17.568C104.022 17.568 104.942 17.84 105.742 18.384C106.558 18.912 107.19 19.664 107.638 20.64C108.102 21.6 108.334 22.704 108.334 23.952C108.334 25.2 108.11 26.296 107.661 27.24C107.214 28.184 106.582 28.912 105.766 29.424C104.966 29.936 104.038 30.192 102.982 30.192C102.102 30.192 101.318 30.008 100.63 29.64C99.9415 29.256 99.4135 28.728 99.0455 28.056V35.184H96.0695V21.312C96.0695 20.032 96.0055 18.888 95.8775 17.88H98.6855L98.9255 19.968C99.2455 19.216 99.7655 18.632 100.486 18.216C101.206 17.784 102.038 17.568 102.982 17.568ZM102.166 27.84C103.174 27.84 103.95 27.504 104.494 26.832C105.038 26.16 105.31 25.2 105.31 23.952C105.31 22.688 105.038 21.704 104.494 21C103.95 20.28 103.182 19.92 102.19 19.92C101.166 19.92 100.382 20.264 99.8375 20.952C99.2935 21.64 99.0215 22.624 99.0215 23.904C99.0215 25.168 99.2935 26.144 99.8375 26.832C100.382 27.504 101.158 27.84 102.166 27.84ZM116.448 30.192C115.216 30.192 114.128 29.936 113.184 29.424C112.256 28.912 111.536 28.184 111.024 27.24C110.528 26.28 110.28 25.16 110.28 23.88C110.28 22.6 110.528 21.488 111.024 20.544C111.536 19.584 112.256 18.848 113.184 18.336C114.128 17.824 115.216 17.568 116.448 17.568C117.664 17.568 118.736 17.824 119.664 18.336C120.592 18.848 121.304 19.584 121.8 20.544C122.312 21.488 122.568 22.6 122.568 23.88C122.568 25.16 122.312 26.28 121.8 27.24C121.304 28.184 120.592 28.912 119.664 29.424C118.736 29.936 117.664 30.192 116.448 30.192ZM116.424 27.84C117.448 27.84 118.224 27.512 118.752 26.856C119.296 26.184 119.568 25.192 119.568 23.88C119.568 22.584 119.296 21.6 118.752 20.928C118.208 20.24 117.44 19.896 116.448 19.896C115.44 19.896 114.664 20.24 114.12 20.928C113.576 21.6 113.304 22.584 113.304 23.88C113.304 25.192 113.568 26.184 114.096 26.856C114.64 27.512 115.416 27.84 116.424 27.84ZM125.371 12.912H136.795V15.36H128.395V20.088H136.291V22.536H128.395V27.552H136.795V30H125.371V12.912Z" fill="white"/>
<circle cx="20.5" cy="20.5" r="20.5" fill="white"/>
<path d="M15.002 12.488H27.378V15.14H18.278V20.262H26.832V22.914H18.278V28.348H27.378V31H15.002V12.488Z" fill="#5B9BF3"/>
</svg>
